HIERARCHY
ROOT Hips
{
	OFFSET 0.00000 0.00000 0.00000
	CHANNELS 6 Xposition Yposition Zposition Zrotation Yrotation Xrotation 
	JOINT LHipJoint
	{
		OFFSET 0 0 0
		CHANNELS 3 Zrotation Yrotation Xrotation
		JOINT LeftHip
		{
			OFFSET 1.51378 -1.89840 0.47569
			CHANNELS 3 Zrotation Yrotation Xrotation
			JOINT LeftKnee
			{
				OFFSET 2.53380 -6.96157 0.00000
				CHANNELS 3 Zrotation Yrotation Xrotation
				JOINT LeftAnkle
				{
					OFFSET 2.74874 -7.55212 0.00000
					CHANNELS 3 Zrotation Yrotation Xrotation
					JOINT LeftToe
					{
						OFFSET 0.18263 -0.50178 1.99677
						CHANNELS 3 Zrotation Yrotation Xrotation
						End Site
						{
							OFFSET 0.00000 -0.00000 1.03711
						}
					}
				}
			}
		}
	}
	JOINT RHipJoint
	{
		OFFSET 0 0 0
		CHANNELS 3 Zrotation Yrotation Xrotation
		JOINT RightHip
		{
			OFFSET -1.43037 -1.89840 0.47569
			CHANNELS 3 Zrotation Yrotation Xrotation
			JOINT RightKnee
			{
				OFFSET -2.69849 -7.41406 0.00000
				CHANNELS 3 Zrotation Yrotation Xrotation
				JOINT RightAnkle
				{
					OFFSET -2.69369 -7.40087 0.00000
					CHANNELS 3 Zrotation Yrotation Xrotation
					JOINT RightToe
					{
						OFFSET -0.28932 -0.79491 2.04975
						CHANNELS 3 Zrotation Yrotation Xrotation
						End Site
						{
							OFFSET 0.00009 0.00010 1.09536
						}
					}
				}
			}
		}
	}
	JOINT lowerback
	{
		OFFSET 0 0 0
		CHANNELS 3 Zrotation Yrotation Xrotation
		JOINT Chest
		{
			OFFSET 0.01912 1.94784 -0.02419
			CHANNELS 3 Zrotation Yrotation Xrotation
			JOINT Chest2
			{
				OFFSET 0.07565 1.94258 0.01909
				CHANNELS 3 Zrotation Yrotation Xrotation
				JOINT lowerneck
				{
					OFFSET 0 0 0
					CHANNELS 3 Zrotation Yrotation Xrotation
					JOINT Neck
					{
						OFFSET -0.07010 1.86195 0.18976
						CHANNELS 3 Zrotation Yrotation Xrotation
						JOINT Head
						{
							OFFSET 0.02284 1.86595 -0.31497
							CHANNELS 3 Zrotation Yrotation Xrotation
							End Site
							{
								OFFSET 0.01200 1.90122 -0.12838
							}
						}
					}
				}
				JOINT LeftCollar
				{
					OFFSET 0 0 0
					CHANNELS 3 Zrotation Yrotation Xrotation
					JOINT LeftShoulder
					{
						OFFSET 3.39189 0.96331 -0.10437
CHANNELS 3 Zrotation Xrotation Yrotation
						JOINT LeftElbow
						{
OFFSET 0 -5.148450 0.000000
CHANNELS 3 Zrotation Xrotation Yrotation
							JOINT LeftWrist
							{
OFFSET 0 -3.436740 -0.000000
CHANNELS 3 Zrotation Xrotation Yrotation
								JOINT lhand
								{
									OFFSET 0 0 0
CHANNELS 3 Zrotation Xrotation Yrotation
									JOINT LFingers
									{
OFFSET 0 -0.588710 0.000000
CHANNELS 3 Zrotation Xrotation Yrotation
										End Site
										{
OFFSET 0 -0.474630 0.000000
										}
									}
								}
								JOINT LThumb
								{
OFFSET 0 0.000000 0.000000
CHANNELS 3 Zrotation Xrotation Yrotation
									End Site
									{
OFFSET 0 -0.481880 0.481880
									}
								}
							}
						}
					}
				}
				JOINT RightCollar
				{
					OFFSET 0 0 0
					CHANNELS 3 Zrotation Yrotation Xrotation
					JOINT RightShoulder
					{
						OFFSET -3.34934 1.18831 -0.19928
CHANNELS 3 Zrotation Xrotation Yrotation
						JOINT RightElbow
						{
OFFSET 0 -5.421850 0.000000
CHANNELS 3 Zrotation Xrotation Yrotation
							JOINT RightWrist
							{
OFFSET 0 -3.513170 -0.000000
CHANNELS 3 Zrotation Xrotation Yrotation
								JOINT rhand
								{
									OFFSET 0 0 0
CHANNELS 3 Zrotation Xrotation Yrotation
									JOINT RFingers
									{
OFFSET 0 -0.663190 0.000000
CHANNELS 3 Zrotation Xrotation Yrotation
										End Site
										{
OFFSET 0 -0.534680 0.000000
										}
									}
								}
								JOINT RThumb
								{
OFFSET 0 0.000000 0.000000
CHANNELS 3 Zrotation Xrotation Yrotation
									End Site
									{
OFFSET 0 -0.542840 0.542840
									}
								}
							}
						}
					}
				}
			}
		}
	}
}
MOTION
Frames: 6
Frame Time: 0.008333333333333333
-12.881200 17.832100 -13.975400 -2.994300 43.505800 4.154500 0.000000 0.000000 0.000000 -19.902800 -7.398900 -12.956800 2.043900 8.956800 25.660400 0.959900 2.526700 -19.581900 0.000000 0.039300 0.107900 0.000000 0.000000 0.000000 25.491600 10.073000 -15.472400 -3.509100 -11.476800 33.905300 -1.775700 -3.152500 -26.469000 -0.001500 -0.253700 0.696900 -0.911200 -0.063100 -2.984800 3.342300 -0.068000 -0.928400 3.949400 -0.023800 0.725900 -4.182600 -2.280600 -16.469900 1.090300 -2.203300 23.505300 0.797100 -1.210900 10.300600 -0.000000 0.000000 0.000000 -2.819000 2.964100 -16.757200 15.320700 -24.591000 3.358300 19.852900 8.856900 -24.147300 0.000000 0.000000 0.000000 -7.125000 0.000000 0.000000 -10.196200 55.173900 2.566600 -0.000000 0.000000 0.000000 -3.352400 -0.476800 19.876200 -13.297800 -21.722000 -2.562500 -25.507600 0.610400 -13.180600 0.000000 0.000000 0.000000 7.125000 0.000000 -0.000000 1.257900 15.435700 0.877900
-12.891634 17.831202 -13.977337 -3.123866 43.570264 4.019278 0.000000 0.000000 0.000000 -19.765369 -7.435490 -12.952484 2.050093 8.969653 25.700424 0.968204 2.412211 -19.605259 0.001766 0.272454 0.748516 0.000000 0.000000 0.000000 25.621023 10.095208 -15.466950 -3.517974 -11.489711 33.949806 -1.785165 -3.088426 -26.506104 -0.003436 -0.378252 1.039319 -0.766799 -0.056564 -2.917587 3.356466 -0.063075 -0.908788 3.882280 -0.021154 0.707942 -4.075457 -2.242441 -16.418493 0.683365 -2.079260 23.164560 0.652145 -1.192293 10.158879 0.000000 0.000000 0.000000 -2.764113 3.004789 -17.235508 15.448856 -24.767686 3.411762 20.370797 8.783448 -24.712554 0.000000 0.000000 0.000000 -7.125000 0.000000 0.000000 -9.908768 55.852348 2.656840 0.000000 0.000000 0.000000 -3.387359 -0.360904 20.155083 -13.234979 -21.630536 -2.539226 -25.866406 0.175283 -13.078812 0.000000 0.000000 0.000000 7.125000 0.000000 0.000000 1.004355 15.504541 0.699426
-12.899005 17.833667 -13.980592 -2.868549 43.454755 4.411251 0.000000 0.000000 0.000000 -19.942146 -7.450543 -13.231802 2.045493 8.960120 25.670724 0.955607 2.461782 -19.509688 0.001809 0.260197 0.714906 0.000000 0.000000 0.000000 25.359061 10.188453 -15.773861 -3.530723 -11.508266 34.013781 -1.796152 -2.899466 -26.497800 -0.006703 -0.529738 1.455623 -0.960401 -0.075360 -3.105650 3.352805 -0.084012 -0.923858 3.987869 -0.032709 0.799482 -4.167643 -2.096178 -16.435522 0.770001 -1.873359 22.942159 0.725823 -1.094829 10.078555 0.000000 0.000000 0.000000 -2.875874 2.928946 -16.792304 15.405442 -24.707932 3.393656 19.583939 8.723093 -24.406804 0.000000 0.000000 0.000000 -7.125000 0.000000 0.000000 -10.589527 55.382844 2.721257 0.000000 0.000000 0.000000 -3.464569 -0.278583 20.039665 -13.215021 -21.601503 -2.531891 -25.605953 0.879283 -13.036095 0.000000 0.000000 0.000000 7.125000 0.000000 0.000000 1.180234 15.582415 0.820101
-12.912494 17.830792 -13.986215 -2.894650 43.459652 4.343262 0.000000 0.000000 0.000000 -19.887368 -7.473122 -13.296993 2.067406 9.005013 25.811140 0.964431 2.456704 -19.591457 0.001909 0.280085 0.769408 0.000000 0.000000 0.000000 25.400493 10.111234 -15.784665 -3.526600 -11.502399 33.993499 -1.801703 -2.625373 -26.415845 -0.013785 -0.757069 2.080615 -0.991145 -0.033571 -3.044025 3.392480 -0.029022 -0.844249 4.048690 -0.006760 0.842641 -4.366285 -2.170838 -16.618320 0.851452 -1.937491 22.851416 0.777328 -1.132135 10.086097 0.000000 0.000000 0.000000 -2.879324 2.891767 -16.696448 15.315537 -24.583813 3.356074 19.037668 8.284674 -23.480574 0.000000 0.000000 0.000000 -7.125000 0.000000 0.000000 -10.744124 54.339531 2.487585 0.000000 0.000000 0.000000 -3.595496 -0.365897 19.846702 -13.057913 -21.372072 -2.474368 -25.648109 0.580789 -13.017939 0.000000 0.000000 0.000000 7.125000 0.000000 0.000000 1.149984 15.597131 0.798648
-12.919040 17.828700 -13.989863 -2.577820 43.534781 4.646317 0.000000 0.000000 0.000000 -20.119526 -7.490310 -13.336462 2.044803 8.958775 25.666367 0.951207 2.478814 -19.475581 0.000366 -0.126957 -0.348866 0.000000 0.000000 0.000000 25.120235 9.963872 -16.050832 -3.559136 -11.549357 34.155885 -1.822704 -2.628369 -26.564016 -0.006916 -0.535271 1.470831 -1.164733 -0.048088 -3.067137 3.331707 -0.044382 -0.816833 4.083486 -0.016036 0.884938 -4.370438 -2.246283 -16.931137 0.767424 -2.007094 22.864136 0.736116 -1.174869 10.151435 0.000000 0.000000 0.000000 -2.931426 2.797825 -16.865262 15.239733 -24.479070 3.324674 20.114746 9.233789 -24.687210 0.000000 0.000000 0.000000 -7.125000 0.000000 0.000000 -10.164725 55.774176 2.707358 0.000000 0.000000 0.000000 -3.466679 -0.369873 19.090450 -13.050501 -21.361178 -2.471670 -25.443674 1.119571 -13.265359 0.000000 0.000000 0.000000 7.125000 0.000000 0.000000 1.307752 15.350450 0.914961
-12.939456 17.828764 -13.992969 -2.763738 43.523178 4.519910 0.000000 0.000000 0.000000 -19.904592 -7.578606 -13.455062 2.069706 9.009743 25.825723 0.952761 2.514150 -19.507809 0.000197 -0.088008 -0.241771 0.000000 0.000000 0.000000 25.331211 10.121004 -15.972028 -3.540382 -11.522338 34.062376 -1.822447 -2.635396 -26.565304 -0.017150 -0.844050 2.319761 -1.123734 -0.062857 -2.820219 3.365012 -0.063487 -0.837368 4.093548 -0.023043 0.727040 -4.148673 -2.063480 -16.590767 0.725070 -1.821123 22.545544 0.712155 -1.073550 9.963738 0.000000 0.000000 0.000000 -2.891878 2.902975 -16.754685 15.218191 -24.449184 3.315719 19.535787 8.766056 -23.866141 0.000000 0.000000 0.000000 -7.125000 0.000000 0.000000 -10.400633 54.826348 2.530537 0.000000 0.000000 0.000000 -3.369505 -0.116938 19.081485 -13.180854 -21.551618 -2.519330 -25.538508 1.371359 -12.942394 0.000000 0.000000 0.000000 7.125000 0.000000 0.000000 1.220064 15.692902 0.844724
